<svg width="123" height="24" viewBox="0 0 123 24" fill="none" xmlns="http://www.w3.org/2000/svg">
<path d="M6.544 20.88L4.784 17.984L5.136 18.144C5.09333 18.144 5.04 18.144 4.976 18.144C4.92267 18.1547 4.864 18.16 4.8 18.16C4.05333 18.16 3.40267 18.016 2.848 17.728C2.29333 17.44 1.86133 17.0347 1.552 16.512C1.24267 15.9787 1.088 15.3653 1.088 14.672V9.648C1.088 8.93333 1.24267 8.32 1.552 7.808C1.86133 7.28533 2.29333 6.88 2.848 6.592C3.40267 6.304 4.05333 6.16 4.8 6.16C5.54667 6.16 6.19733 6.304 6.752 6.592C7.30667 6.88 7.73867 7.28533 8.048 7.808C8.35733 8.33067 8.512 8.944 8.512 9.648V14.672C8.512 15.376 8.35733 15.9947 8.048 16.528C7.74933 17.0507 7.32267 17.4507 6.768 17.728L8.704 20.88H6.544ZM4.8 16.4C5.35467 16.4 5.776 16.2507 6.064 15.952C6.36267 15.6427 6.512 15.216 6.512 14.672V9.648C6.512 9.09333 6.35733 8.66667 6.048 8.368C5.74933 8.05867 5.33333 7.904 4.8 7.904C4.26667 7.904 3.84533 8.05867 3.536 8.368C3.23733 8.66667 3.088 9.09333 3.088 9.648V14.672C3.088 15.216 3.23733 15.6427 3.536 15.952C3.83467 16.2507 4.256 16.4 4.8 16.4ZM16.6658 18.16C15.8657 18.16 15.1724 18.0267 14.5857 17.76C13.9991 17.4933 13.5457 17.1147 13.2257 16.624C12.9164 16.1227 12.7564 15.536 12.7457 14.864H14.7457C14.7457 15.344 14.9164 15.7227 15.2578 16C15.6097 16.2667 16.0844 16.4 16.6817 16.4C17.2578 16.4 17.7058 16.2667 18.0258 16C18.3564 15.7333 18.5217 15.3653 18.5217 14.896C18.5217 14.5013 18.4044 14.16 18.1698 13.872C17.9458 13.5733 17.6204 13.3707 17.1937 13.264L15.8498 12.896C14.9324 12.6613 14.2231 12.24 13.7217 11.632C13.2311 11.024 12.9857 10.288 12.9857 9.424C12.9857 8.76267 13.1351 8.18667 13.4337 7.696C13.7324 7.20533 14.1537 6.82667 14.6977 6.56C15.2524 6.29333 15.9031 6.16 16.6498 6.16C17.7804 6.16 18.6764 6.45333 19.3377 7.04C19.9991 7.616 20.3351 8.39467 20.3457 9.376H18.3457C18.3457 8.91733 18.1964 8.56 17.8977 8.304C17.5991 8.03733 17.1777 7.904 16.6337 7.904C16.1111 7.904 15.7057 8.02667 15.4177 8.272C15.1297 8.51733 14.9857 8.864 14.9857 9.312C14.9857 9.71733 15.0924 10.064 15.3057 10.352C15.5297 10.6293 15.8497 10.8267 16.2657 10.944L17.6578 11.328C18.5858 11.5627 19.2951 11.984 19.7857 12.592C20.2764 13.1893 20.5218 13.9307 20.5218 14.816C20.5218 15.4773 20.3618 16.064 20.0417 16.576C19.7217 17.0773 19.2737 17.4667 18.6978 17.744C18.1218 18.0213 17.4444 18.16 16.6658 18.16ZM25.9075 13.648V11.792H31.0275V13.648H25.9075Z" fill="white" fill-opacity="0.54"/>
<path d="M40.3653 18.16C39.6186 18.16 38.9626 18.0213 38.3973 17.744C37.8426 17.456 37.4106 17.056 37.1013 16.544C36.8026 16.0213 36.6533 15.408 36.6533 14.704V9.616C36.6533 8.90133 36.8026 8.288 37.1013 7.776C37.4106 7.264 37.8426 6.86933 38.3973 6.592C38.9626 6.304 39.6186 6.16 40.3653 6.16C41.1226 6.16 41.7733 6.304 42.3173 6.592C42.8719 6.86933 43.3039 7.264 43.6133 7.776C43.9226 8.288 44.0773 8.90133 44.0773 9.616H42.0613C42.0613 9.06133 41.9119 8.64 41.6133 8.352C41.3253 8.064 40.9093 7.92 40.3653 7.92C39.8213 7.92 39.3999 8.064 39.1013 8.352C38.8026 8.64 38.6533 9.056 38.6533 9.6V14.704C38.6533 15.248 38.8026 15.6693 39.1013 15.968C39.3999 16.256 39.8213 16.4 40.3653 16.4C40.9093 16.4 41.3253 16.256 41.6133 15.968C41.9119 15.6693 42.0613 15.248 42.0613 14.704H44.0773C44.0773 15.3973 43.9226 16.0053 43.6133 16.528C43.3039 17.0507 42.8719 17.456 42.3173 17.744C41.7733 18.0213 41.1226 18.16 40.3653 18.16ZM53.479 18C52.903 18 52.3963 17.8827 51.959 17.648C51.5323 17.4133 51.1963 17.0827 50.951 16.656C50.7057 16.2187 50.583 15.7173 50.583 15.152V8.128H47.767V6.32H52.583V15.152C52.583 15.472 52.6737 15.728 52.855 15.92C53.047 16.1013 53.303 16.192 53.623 16.192H56.279V18H53.479ZM63.9688 18.144C63.2221 18.144 62.5714 18.0053 62.0168 17.728C61.4728 17.44 61.0461 17.04 60.7368 16.528C60.4381 16.0053 60.2888 15.392 60.2888 14.688V12.512C60.2888 11.808 60.4381 11.2 60.7368 10.688C61.0461 10.1653 61.4728 9.76533 62.0168 9.488C62.5714 9.2 63.2221 9.056 63.9688 9.056C64.7261 9.056 65.3768 9.2 65.9208 9.488C66.4648 9.76533 66.8861 10.1653 67.1848 10.688C67.4941 11.2 67.6488 11.8027 67.6488 12.496V14.688C67.6488 15.392 67.4941 16.0053 67.1848 16.528C66.8861 17.04 66.4648 17.44 65.9208 17.728C65.3768 18.0053 64.7261 18.144 63.9688 18.144ZM63.9688 16.4C64.5021 16.4 64.9128 16.256 65.2008 15.968C65.4994 15.6693 65.6488 15.2427 65.6488 14.688V12.512C65.6488 11.9467 65.4994 11.52 65.2008 11.232C64.9128 10.944 64.5021 10.8 63.9688 10.8C63.4461 10.8 63.0354 10.944 62.7368 11.232C62.4381 11.52 62.2888 11.9467 62.2888 12.512V14.688C62.2888 15.2427 62.4381 15.6693 62.7368 15.968C63.0354 16.256 63.4461 16.4 63.9688 16.4ZM75.8505 18.16C75.1038 18.16 74.4478 18.0213 73.8825 17.744C73.3278 17.456 72.8958 17.056 72.5865 16.544C72.2772 16.0213 72.1225 15.408 72.1225 14.704V12.496C72.1225 11.7813 72.2772 11.168 72.5865 10.656C72.8958 10.144 73.3278 9.74933 73.8825 9.472C74.4478 9.184 75.1038 9.04 75.8505 9.04C76.9598 9.04 77.8452 9.328 78.5065 9.904C79.1678 10.4693 79.5145 11.2427 79.5465 12.224H77.5465C77.5145 11.7653 77.3492 11.4133 77.0505 11.168C76.7625 10.912 76.3625 10.784 75.8505 10.784C75.3172 10.784 74.8958 10.9333 74.5865 11.232C74.2772 11.52 74.1225 11.936 74.1225 12.48V14.704C74.1225 15.248 74.2772 15.6693 74.5865 15.968C74.8958 16.2667 75.3172 16.416 75.8505 16.416C76.3625 16.416 76.7625 16.2933 77.0505 16.048C77.3492 15.792 77.5145 15.4347 77.5465 14.976H79.5465C79.5145 15.9573 79.1678 16.736 78.5065 17.312C77.8452 17.8773 76.9598 18.16 75.8505 18.16ZM84.1163 18V6.32H86.1163V12.656H87.5083L89.6523 9.2H91.8923L89.2363 13.456L91.9403 18H89.6523L87.5083 14.352H86.1163V18H84.1163Z" fill="#0DB6FF"/>
<path d="M95.902 18V6.32H99.486C100.617 6.32 101.513 6.592 102.174 7.136C102.835 7.66933 103.166 8.4 103.166 9.328C103.166 9.85067 103.049 10.304 102.814 10.688C102.579 11.072 102.259 11.3707 101.854 11.584C101.459 11.7973 101.001 11.904 100.478 11.904V11.84C101.043 11.8293 101.545 11.936 101.982 12.16C102.43 12.3733 102.782 12.6933 103.038 13.12C103.305 13.5467 103.438 14.064 103.438 14.672C103.438 15.344 103.283 15.9307 102.974 16.432C102.665 16.9333 102.227 17.3227 101.662 17.6C101.107 17.8667 100.441 18 99.662 18H95.902ZM97.854 16.336H99.534C100.121 16.336 100.579 16.1813 100.91 15.872C101.251 15.552 101.422 15.12 101.422 14.576C101.422 14.032 101.251 13.5947 100.91 13.264C100.579 12.9227 100.121 12.752 99.534 12.752H97.854V16.336ZM97.854 11.136H99.454C99.9873 11.136 100.403 10.9973 100.702 10.72C101.011 10.432 101.166 10.0427 101.166 9.552C101.166 9.06133 101.011 8.67733 100.702 8.4C100.403 8.12267 99.9873 7.984 99.454 7.984H97.854V11.136ZM108.424 18.144C107.677 18.144 107.026 18.0053 106.472 17.728C105.928 17.44 105.501 17.04 105.192 16.528C104.893 16.0053 104.744 15.392 104.744 14.688V12.512C104.744 11.808 104.893 11.2 105.192 10.688C105.501 10.1653 105.928 9.76533 106.472 9.488C107.026 9.2 107.677 9.056 108.424 9.056C109.181 9.056 109.832 9.2 110.376 9.488C110.92 9.76533 111.341 10.1653 111.64 10.688C111.949 11.2 112.104 11.8027 112.104 12.496V14.688C112.104 15.392 111.949 16.0053 111.64 16.528C111.341 17.04 110.92 17.44 110.376 17.728C109.832 18.0053 109.181 18.144 108.424 18.144ZM108.424 16.4C108.957 16.4 109.368 16.256 109.656 15.968C109.954 15.6693 110.104 15.2427 110.104 14.688V12.512C110.104 11.9467 109.954 11.52 109.656 11.232C109.368 10.944 108.957 10.8 108.424 10.8C107.901 10.8 107.49 10.944 107.192 11.232C106.893 11.52 106.744 11.9467 106.744 12.512V14.688C106.744 15.2427 106.893 15.6693 107.192 15.968C107.49 16.256 107.901 16.4 108.424 16.4ZM113.153 18L116.225 13.456L113.361 9.2H115.617L116.977 11.36C117.063 11.488 117.137 11.632 117.201 11.792C117.276 11.952 117.335 12.08 117.377 12.176C117.42 12.08 117.479 11.952 117.553 11.792C117.628 11.632 117.703 11.488 117.777 11.36L119.153 9.2H121.41L118.545 13.456L121.601 18H119.329L117.809 15.584C117.724 15.4453 117.644 15.296 117.569 15.136C117.495 14.976 117.431 14.848 117.377 14.752C117.335 14.848 117.276 14.976 117.201 15.136C117.127 15.296 117.047 15.4453 116.961 15.584L115.409 18H113.153Z" fill="white"/>
</svg>
