<svg width="112" height="43" viewBox="0 0 112 43" fill="none" xmlns="http://www.w3.org/2000/svg">
<path d="M8.796 21.74C7.676 21.74 6.692 21.532 5.844 21.116C5.012 20.684 4.364 20.084 3.9 19.316C3.452 18.532 3.228 17.612 3.228 16.556V8.924C3.228 7.852 3.452 6.932 3.9 6.164C4.364 5.396 5.012 4.804 5.844 4.388C6.692 3.956 7.676 3.74 8.796 3.74C9.932 3.74 10.908 3.956 11.724 4.388C12.556 4.804 13.204 5.396 13.668 6.164C14.132 6.932 14.364 7.852 14.364 8.924H11.34C11.34 8.092 11.116 7.46 10.668 7.028C10.236 6.596 9.612 6.38 8.796 6.38C7.98 6.38 7.348 6.596 6.9 7.028C6.452 7.46 6.228 8.084 6.228 8.9V16.556C6.228 17.372 6.452 18.004 6.9 18.452C7.348 18.884 7.98 19.1 8.796 19.1C9.612 19.1 10.236 18.884 10.668 18.452C11.116 18.004 11.34 17.372 11.34 16.556H14.364C14.364 17.596 14.132 18.508 13.668 19.292C13.204 20.076 12.556 20.684 11.724 21.116C10.908 21.532 9.932 21.74 8.796 21.74ZM24.1466 21.5C23.2826 21.5 22.5226 21.324 21.8666 20.972C21.2266 20.62 20.7226 20.124 20.3546 19.484C19.9866 18.828 19.8026 18.076 19.8026 17.228V6.692H15.5786V3.98H22.8026V17.228C22.8026 17.708 22.9386 18.092 23.2106 18.38C23.4986 18.652 23.8826 18.788 24.3626 18.788H28.3466V21.5H24.1466ZM35.5613 21.716C34.4413 21.716 33.4653 21.508 32.6332 21.092C31.8173 20.66 31.1773 20.06 30.7133 19.292C30.2652 18.508 30.0412 17.588 30.0412 16.532V13.268C30.0412 12.212 30.2652 11.3 30.7133 10.532C31.1773 9.748 31.8173 9.148 32.6332 8.732C33.4653 8.3 34.4413 8.084 35.5613 8.084C36.6973 8.084 37.6733 8.3 38.4893 8.732C39.3053 9.148 39.9373 9.748 40.3853 10.532C40.8493 11.3 41.0813 12.204 41.0813 13.244V16.532C41.0813 17.588 40.8493 18.508 40.3853 19.292C39.9373 20.06 39.3053 20.66 38.4893 21.092C37.6733 21.508 36.6973 21.716 35.5613 21.716ZM35.5613 19.1C36.3613 19.1 36.9773 18.884 37.4093 18.452C37.8573 18.004 38.0813 17.364 38.0813 16.532V13.268C38.0813 12.42 37.8573 11.78 37.4093 11.348C36.9773 10.916 36.3613 10.7 35.5613 10.7C34.7773 10.7 34.1613 10.916 33.7133 11.348C33.2653 11.78 33.0413 12.42 33.0413 13.268V16.532C33.0413 17.364 33.2653 18.004 33.7133 18.452C34.1613 18.884 34.7773 19.1 35.5613 19.1ZM49.0639 21.74C47.9439 21.74 46.9599 21.532 46.1119 21.116C45.2799 20.684 44.6319 20.084 44.1679 19.316C43.7039 18.532 43.4719 17.612 43.4719 16.556V13.244C43.4719 12.172 43.7039 11.252 44.1679 10.484C44.6319 9.716 45.2799 9.124 46.1119 8.708C46.9599 8.276 47.9439 8.06 49.0639 8.06C50.7279 8.06 52.0559 8.492 53.0479 9.356C54.0399 10.204 54.5599 11.364 54.6079 12.836H51.6079C51.5599 12.148 51.3119 11.62 50.8639 11.252C50.4319 10.868 49.8319 10.676 49.0639 10.676C48.2639 10.676 47.6319 10.9 47.1679 11.348C46.7039 11.78 46.4719 12.404 46.4719 13.22V16.556C46.4719 17.372 46.7039 18.004 47.1679 18.452C47.6319 18.9 48.2639 19.124 49.0639 19.124C49.8319 19.124 50.4319 18.94 50.8639 18.572C51.3119 18.188 51.5599 17.652 51.6079 16.964H54.6079C54.5599 18.436 54.0399 19.604 53.0479 20.468C52.0559 21.316 50.7279 21.74 49.0639 21.74ZM57.1425 21.5V3.98H60.1425V13.484H62.2305L65.4465 8.3H68.8065L64.8225 14.684L68.8785 21.5H65.4465L62.2305 16.028H60.1425V21.5H57.1425Z" fill="#0DB6FF"/>
<path d="M70.5011 21.5V3.98H75.8771C77.5731 3.98 78.9171 4.388 79.9091 5.204C80.9011 6.004 81.3971 7.1 81.3971 8.492C81.3971 9.276 81.2211 9.956 80.8691 10.532C80.5171 11.108 80.0371 11.556 79.4291 11.876C78.8371 12.196 78.1491 12.356 77.3651 12.356V12.26C78.2131 12.244 78.9651 12.404 79.6211 12.74C80.2931 13.06 80.8211 13.54 81.2051 14.18C81.6051 14.82 81.8051 15.596 81.8051 16.508C81.8051 17.516 81.5731 18.396 81.1091 19.148C80.6451 19.9 79.9891 20.484 79.1411 20.9C78.3091 21.3 77.3091 21.5 76.1411 21.5H70.5011ZM73.4291 19.004H75.9491C76.8291 19.004 77.5171 18.772 78.0131 18.308C78.5251 17.828 78.7811 17.18 78.7811 16.364C78.7811 15.548 78.5251 14.892 78.0131 14.396C77.5171 13.884 76.8291 13.628 75.9491 13.628H73.4291V19.004ZM73.4291 11.204H75.8291C76.6291 11.204 77.2531 10.996 77.7011 10.58C78.1651 10.148 78.3971 9.564 78.3971 8.828C78.3971 8.092 78.1651 7.516 77.7011 7.1C77.2531 6.684 76.6291 6.476 75.8291 6.476H73.4291V11.204ZM89.2837 21.716C88.1637 21.716 87.1877 21.508 86.3557 21.092C85.5397 20.66 84.8997 20.06 84.4357 19.292C83.9877 18.508 83.7637 17.588 83.7637 16.532V13.268C83.7637 12.212 83.9877 11.3 84.4357 10.532C84.8997 9.748 85.5397 9.148 86.3557 8.732C87.1877 8.3 88.1637 8.084 89.2837 8.084C90.4197 8.084 91.3957 8.3 92.2117 8.732C93.0277 9.148 93.6597 9.748 94.1077 10.532C94.5717 11.3 94.8037 12.204 94.8037 13.244V16.532C94.8037 17.588 94.5717 18.508 94.1077 19.292C93.6597 20.06 93.0277 20.66 92.2117 21.092C91.3957 21.508 90.4197 21.716 89.2837 21.716ZM89.2837 19.1C90.0837 19.1 90.6997 18.884 91.1317 18.452C91.5797 18.004 91.8037 17.364 91.8037 16.532V13.268C91.8037 12.42 91.5797 11.78 91.1317 11.348C90.6997 10.916 90.0837 10.7 89.2837 10.7C88.4997 10.7 87.8837 10.916 87.4357 11.348C86.9877 11.78 86.7637 12.42 86.7637 13.268V16.532C86.7637 17.364 86.9877 18.004 87.4357 18.452C87.8837 18.884 88.4997 19.1 89.2837 19.1ZM96.3784 21.5L100.986 14.684L96.6904 8.3H100.074L102.114 11.54C102.242 11.732 102.354 11.948 102.45 12.188C102.562 12.428 102.65 12.62 102.714 12.764C102.778 12.62 102.866 12.428 102.978 12.188C103.09 11.948 103.202 11.732 103.314 11.54L105.378 8.3H108.762L104.466 14.684L109.05 21.5H105.642L103.362 17.876C103.234 17.668 103.114 17.444 103.002 17.204C102.89 16.964 102.794 16.772 102.714 16.628C102.65 16.772 102.562 16.964 102.45 17.204C102.338 17.444 102.218 17.668 102.09 17.876L99.7624 21.5H96.3784Z" fill="white"/>
<rect x="4.5" y="32" width="32" height="3" fill="#0DB6FF"/>
<path d="M52.68 31.92C53.1333 32.02 53.48 32.22 53.72 32.52C53.96 32.8133 54.08 33.1767 54.08 33.61C54.08 33.97 53.9933 34.2933 53.82 34.58C53.6467 34.8667 53.3867 35.0933 53.04 35.26C52.7 35.42 52.2867 35.5 51.8 35.5H49.7V28.7H51.8C52.44 28.7 52.93 28.86 53.27 29.18C53.61 29.5 53.78 29.9267 53.78 30.46C53.78 30.8067 53.6833 31.11 53.49 31.37C53.3033 31.63 53.0333 31.8133 52.68 31.92ZM50.26 29.16V31.7H51.8C52.2533 31.7 52.6033 31.5867 52.85 31.36C53.0967 31.1333 53.22 30.83 53.22 30.45C53.22 30.0233 53.1 29.7033 52.86 29.49C52.62 29.27 52.2667 29.16 51.8 29.16H50.26ZM51.8 35.04C52.3467 35.04 52.77 34.91 53.07 34.65C53.37 34.39 53.52 34.04 53.52 33.6C53.52 33.1267 53.3733 32.77 53.08 32.53C52.7867 32.2833 52.36 32.16 51.8 32.16H50.26V35.04H51.8ZM59.434 30.3L57.154 36.24C56.9207 36.8467 56.6573 37.2833 56.364 37.55C56.0707 37.8167 55.704 37.95 55.264 37.95C55.104 37.95 54.944 37.9233 54.784 37.87L54.894 37.4C55.014 37.4333 55.1373 37.45 55.264 37.45C55.4773 37.45 55.6607 37.41 55.814 37.33C55.974 37.25 56.124 37.1067 56.264 36.9C56.4107 36.6933 56.5573 36.3967 56.704 36.01L56.904 35.47L54.904 30.3H55.474L57.194 34.73L58.884 30.3H59.434ZM70.4528 37.46C70.1061 37.7467 69.7561 37.89 69.4028 37.89C68.8561 37.89 68.2995 37.5533 67.7328 36.88L66.6528 35.6C66.3861 35.6467 66.1395 35.67 65.9128 35.67C65.2328 35.67 64.6528 35.5133 64.1728 35.2C63.6995 34.88 63.3395 34.45 63.0928 33.91C62.8528 33.37 62.7328 32.7733 62.7328 32.12C62.7328 31.4667 62.8528 30.87 63.0928 30.33C63.3395 29.79 63.6995 29.36 64.1728 29.04C64.6528 28.72 65.2328 28.56 65.9128 28.56C66.5861 28.56 67.1628 28.72 67.6428 29.04C68.1228 29.36 68.4828 29.79 68.7228 30.33C68.9695 30.8633 69.0928 31.4533 69.0928 32.1C69.0928 32.8667 68.9295 33.5467 68.6028 34.14C68.2828 34.7333 67.8228 35.16 67.2228 35.42L68.1528 36.51C68.6461 37.0833 69.0795 37.37 69.4528 37.37C69.7461 37.37 70.0261 37.26 70.2928 37.04L70.4528 37.46ZM63.2928 32.11C63.2928 32.7033 63.3928 33.2333 63.5928 33.7C63.7995 34.1667 64.0995 34.5333 64.4928 34.8C64.8861 35.0667 65.3595 35.2 65.9128 35.2C66.4661 35.2 66.9395 35.0667 67.3328 34.8C67.7261 34.5333 68.0228 34.1667 68.2228 33.7C68.4295 33.2333 68.5328 32.7033 68.5328 32.11C68.5328 31.5233 68.4295 31 68.2228 30.54C68.0228 30.0733 67.7261 29.7067 67.3328 29.44C66.9395 29.1667 66.4661 29.03 65.9128 29.03C65.3595 29.03 64.8861 29.1667 64.4928 29.44C64.0995 29.7067 63.7995 30.0733 63.5928 30.54C63.3928 31 63.2928 31.5233 63.2928 32.11ZM74.4414 30.3V35.5H74.0014L73.9214 34.89C73.2814 35.43 72.6481 35.7 72.0214 35.7C71.4947 35.7 71.1314 35.5667 70.9314 35.3C70.7381 35.0267 70.6414 34.63 70.6414 34.11V30.3H71.1814V34.09C71.1814 34.4833 71.2514 34.7733 71.3914 34.96C71.5314 35.14 71.7681 35.23 72.1014 35.23C72.3747 35.23 72.6547 35.1633 72.9414 35.03C73.2347 34.8967 73.5547 34.6867 73.9014 34.4V30.3H74.4414ZM76.7934 28.28C76.6867 28.28 76.5934 28.2433 76.5134 28.17C76.44 28.09 76.4034 28 76.4034 27.9C76.4034 27.7933 76.44 27.7 76.5134 27.62C76.5934 27.54 76.6867 27.5 76.7934 27.5C76.9067 27.5 77 27.54 77.0734 27.62C77.1534 27.6933 77.1934 27.7867 77.1934 27.9C77.1934 28 77.1534 28.09 77.0734 28.17C76.9934 28.2433 76.9 28.28 76.7934 28.28ZM76.5234 30.3H77.0634V35.5H76.5234V30.3ZM81.0482 35.7C80.5282 35.7 80.0882 35.5733 79.7282 35.32C79.3682 35.0667 79.0982 34.73 78.9182 34.31C78.7449 33.8833 78.6582 33.4167 78.6582 32.91C78.6582 32.3967 78.7515 31.93 78.9382 31.51C79.1249 31.0833 79.4049 30.7433 79.7782 30.49C80.1515 30.23 80.6082 30.1 81.1482 30.1C81.4882 30.1 81.8082 30.1667 82.1082 30.3C82.4149 30.4267 82.6682 30.61 82.8682 30.85L82.5482 31.25C82.3815 31.0367 82.1715 30.8667 81.9182 30.74C81.6715 30.6133 81.4149 30.55 81.1482 30.55C80.5415 30.55 80.0682 30.77 79.7282 31.21C79.3882 31.65 79.2182 32.2133 79.2182 32.9C79.2182 33.5933 79.3782 34.16 79.6982 34.6C80.0182 35.0333 80.4682 35.25 81.0482 35.25C81.6949 35.25 82.2415 34.9533 82.6882 34.36L82.9682 34.7C82.7415 34.9933 82.4682 35.2333 82.1482 35.42C81.8282 35.6067 81.4615 35.7 81.0482 35.7ZM84.2559 27.5H84.7959V35.5H84.2559V27.5ZM88.2559 35.5H87.5859L85.1059 32.75V32.55L87.2359 30.3H87.8659L85.6559 32.62L88.2559 35.5ZM93.9986 35.67C93.4653 35.67 93.0219 35.6133 92.6686 35.5C92.3153 35.3867 91.9786 35.2067 91.6586 34.96L91.9686 34.52C92.4553 34.9733 93.1319 35.2 93.9986 35.2C94.4986 35.2 94.9086 35.07 95.2286 34.81C95.5486 34.55 95.7086 34.1933 95.7086 33.74C95.7086 33.4733 95.6319 33.2533 95.4786 33.08C95.3253 32.9 95.1353 32.76 94.9086 32.66C94.6886 32.5533 94.3853 32.43 93.9986 32.29C93.5586 32.1367 93.2019 31.9933 92.9286 31.86C92.6553 31.7267 92.4219 31.5367 92.2286 31.29C92.0419 31.0433 91.9486 30.73 91.9486 30.35C91.9486 29.77 92.1419 29.3267 92.5286 29.02C92.9153 28.7133 93.4019 28.56 93.9886 28.56C94.4219 28.56 94.8053 28.62 95.1386 28.74C95.4786 28.8533 95.8019 29.03 96.1086 29.27L95.8086 29.7C95.5553 29.48 95.2719 29.3133 94.9586 29.2C94.6519 29.0867 94.3286 29.03 93.9886 29.03C93.5619 29.03 93.2053 29.14 92.9186 29.36C92.6386 29.58 92.4986 29.9067 92.4986 30.34C92.4986 30.6067 92.5753 30.83 92.7286 31.01C92.8819 31.1833 93.0686 31.3233 93.2886 31.43C93.5153 31.53 93.8219 31.6467 94.2086 31.78C94.6619 31.94 95.0219 32.0867 95.2886 32.22C95.5619 32.3533 95.7919 32.5433 95.9786 32.79C96.1719 33.0367 96.2686 33.3533 96.2686 33.74C96.2686 34.1267 96.1686 34.4667 95.9686 34.76C95.7686 35.0533 95.4953 35.28 95.1486 35.44C94.8086 35.5933 94.4253 35.67 93.9986 35.67ZM101.919 35.51C101.692 35.6033 101.499 35.65 101.339 35.65C101.099 35.65 100.909 35.5933 100.769 35.48C100.629 35.3667 100.559 35.1633 100.559 34.87V34.85C99.8925 35.39 99.2925 35.66 98.7591 35.66C98.3525 35.66 98.0225 35.5467 97.7691 35.32C97.5158 35.0867 97.3891 34.79 97.3891 34.43C97.3891 34.1233 97.4758 33.8667 97.6491 33.66C97.8225 33.4467 98.0658 33.27 98.3791 33.13C98.6991 32.9833 99.1158 32.8367 99.6291 32.69L100.559 32.43V31.89C100.559 31.4967 100.492 31.18 100.359 30.94C100.226 30.6933 99.9791 30.57 99.6191 30.57C99.2658 30.57 98.9558 30.6433 98.6891 30.79C98.4225 30.93 98.1191 31.21 97.7791 31.63L97.3991 31.34C98.0591 30.5133 98.7958 30.1 99.6091 30.1C100.162 30.1 100.549 30.24 100.769 30.52C100.989 30.7933 101.099 31.2533 101.099 31.9V34.8C101.099 34.9467 101.122 35.0533 101.169 35.12C101.222 35.18 101.302 35.21 101.409 35.21C101.522 35.21 101.669 35.17 101.849 35.09L101.919 35.51ZM98.7691 35.21C99.0358 35.21 99.3025 35.1433 99.5691 35.01C99.8425 34.87 100.172 34.6533 100.559 34.36V32.87L99.8191 33.08C99.1325 33.2733 98.6458 33.47 98.3591 33.67C98.0725 33.87 97.9291 34.1233 97.9291 34.43C97.9291 34.7033 98.0058 34.9033 98.1591 35.03C98.3191 35.15 98.5225 35.21 98.7691 35.21ZM104.312 30.3H105.912V30.74H104.312V35.5H103.772V30.74H102.922V30.5L103.772 30.32V29.69C103.772 28.23 104.332 27.5 105.452 27.5C105.612 27.5 105.772 27.5267 105.932 27.58L105.822 28.02C105.702 27.9867 105.579 27.97 105.452 27.97C105.045 27.97 104.752 28.11 104.572 28.39C104.399 28.67 104.312 29.11 104.312 29.71V30.3ZM110.82 34.7C110.593 34.9933 110.32 35.2333 110 35.42C109.68 35.6067 109.313 35.7 108.9 35.7C108.38 35.7 107.94 35.5733 107.58 35.32C107.22 35.0667 106.95 34.73 106.77 34.31C106.596 33.8833 106.51 33.4167 106.51 32.91C106.51 32.3967 106.596 31.93 106.77 31.51C106.95 31.0833 107.22 30.7433 107.58 30.49C107.94 30.23 108.38 30.1 108.9 30.1C109.233 30.1 109.543 30.1733 109.83 30.32C110.116 30.46 110.346 30.6667 110.52 30.94C110.693 31.2133 110.78 31.5333 110.78 31.9C110.78 32.0333 110.763 32.1933 110.73 32.38H107.11C107.083 32.5333 107.07 32.7067 107.07 32.9C107.07 33.5933 107.23 34.16 107.55 34.6C107.87 35.0333 108.32 35.25 108.9 35.25C109.546 35.25 110.093 34.9533 110.54 34.36L110.82 34.7ZM108.9 30.55C108.473 30.55 108.113 30.6767 107.82 30.93C107.533 31.1767 107.326 31.5133 107.2 31.94H110.23V31.89C110.23 31.5967 110.163 31.35 110.03 31.15C109.903 30.9433 109.736 30.7933 109.53 30.7C109.33 30.6 109.12 30.55 108.9 30.55Z" fill="white"/>
</svg>
